<svg xmlns="http://www.w3.org/2000/svg" viewBox="22.4 19.03 112.78 103.41" role="img" aria-labelledby="title">
<title id="title">Empírica Legal Lab</title>
<g fill="#d7a386">
<path d="M 36.121 72.977 C 35.32 72.645 34.371 72.512 33.316 72.625 L 35.09 78.41 C 37.336 77.539 38.199 76.305 37.699 74.672 C 37.453 73.871 36.918 73.309 36.121 72.977 M 28.293 81.523 C 28.852 82.266 29.426 82.754 30.016 82.996 L 29.902 83.426 C 28.855 83.262 27.895 82.801 27.016 82.008 C 26.137 81.219 25.523 80.105 25.102 78.629 C 24.566 76.793 24.723 75.02 25.512 73.352 C 26.301 71.688 27.668 70.512 29.59 69.859 C 31.539 69.203 33.332 69.32 34.957 70.184 C 36.586 71.047 37.707 72.52 38.297 74.547 C 38.77 76.191 38.809 77.695 38.355 79.074 C 37.898 80.457 36.961 81.441 35.57 82.051 L 32.672 72.699 C 31.953 72.832 31.262 73.043 30.594 73.336 C 29.301 73.949 28.355 74.723 27.773 75.688 C 27.164 76.664 26.98 77.75 27.199 78.953 C 27.379 79.93 27.734 80.789 28.293 81.523"/>
<path d="M 50.535 109.887 C 50.586 110.129 50.809 110.488 51.242 110.961 L 50.93 111.305 L 50.848 111.227 C 50.352 110.738 49.879 110.309 49.449 109.918 L 49.383 109.863 L 46.039 106.867 L 45.953 106.789 L 46.266 106.445 C 46.734 106.832 47.113 107.02 47.383 107.027 C 47.648 107.035 47.984 106.793 48.414 106.363 L 51.004 103.508 C 52.324 102.008 53.117 101.008 53.355 100.441 C 53.684 99.605 53.625 98.809 53.133 98.012 C 52.93 97.594 52.457 97.164 51.695 96.711 C 50.914 96.234 50.105 96.008 49.266 95.988 C 48.938 96.516 48.422 97.219 47.664 98.094 C 47.391 98.395 46.77 99.082 45.773 100.176 C 44.762 101.25 44.16 101.957 43.91 102.277 C 43.504 102.766 43.297 103.125 43.348 103.371 C 43.402 103.613 43.625 103.969 44.055 104.441 L 43.746 104.785 L 43.66 104.707 C 43.164 104.219 42.691 103.789 42.262 103.402 L 42.199 103.344 L 38.832 100.328 L 38.746 100.25 L 39.059 99.906 C 39.527 100.297 39.906 100.48 40.176 100.488 C 40.441 100.496 40.777 100.254 41.207 99.824 L 43.602 97.184 C 45 95.641 45.852 94.574 46.109 93.988 C 46.496 93.086 46.438 92.25 45.926 91.477 C 45.551 90.898 44.996 90.434 44.234 90.02 C 43.48 89.605 42.652 89.48 41.734 89.586 C 41.227 90.105 40.469 90.941 39.438 92.078 L 36.402 95.465 C 35.996 95.957 35.789 96.316 35.84 96.559 C 35.895 96.805 36.117 97.16 36.551 97.633 L 36.238 97.973 L 36.152 97.895 C 35.656 97.406 35.164 96.961 34.711 96.551 L 34.648 96.492 L 31.262 93.461 L 31.176 93.383 L 31.488 93.039 C 31.957 93.426 32.355 93.633 32.645 93.617 C 32.91 93.625 33.25 93.426 33.68 92.992 C 34.5 92.133 35.531 91.039 36.777 89.664 C 38.199 88.098 39.051 87.113 39.34 86.75 C 39.668 86.348 39.715 86.035 39.543 85.84 C 39.453 85.723 39.117 85.492 38.523 85.109 L 38.746 84.648 C 40.281 85.375 42.02 86.172 44.008 86.996 L 44.031 87.098 C 43.484 87.656 42.863 88.344 42.164 89.117 C 43.219 88.902 44.285 88.93 45.387 89.227 C 46.488 89.52 47.395 89.988 48.145 90.672 C 49.348 91.801 49.918 93.023 49.855 94.258 C 49.832 94.586 49.727 95 49.543 95.422 C 50.543 95.313 51.551 95.402 52.551 95.727 C 53.531 96.023 54.371 96.477 55.055 97.059 C 56.445 98.242 57.082 99.523 56.984 100.883 C 56.906 101.828 56.211 103.07 54.848 104.613 L 52.961 106.695 C 52.105 107.637 51.484 108.324 51.094 108.793 C 50.688 109.285 50.48 109.645 50.535 109.887"/>
<path d="M 68.52 113.883 C 69.41 112.785 70.059 111.336 70.406 109.543 C 70.684 108.148 70.605 106.879 70.172 105.703 C 69.715 104.52 68.938 103.793 67.813 103.52 C 66.586 103.285 65.5 103.465 64.57 104.105 C 64.426 104.695 64.211 105.598 63.91 106.836 C 63.582 108.066 63.371 108.941 63.246 109.445 C 62.914 111.063 62.988 112.363 63.473 113.316 C 63.922 114.285 64.586 114.863 65.402 115.063 C 66.578 115.379 67.629 114.977 68.52 113.883 M 73.75 105.316 C 74.43 106.824 74.492 108.535 73.992 110.473 C 73.543 112.207 72.582 113.586 71.18 114.586 C 69.773 115.586 68.133 115.965 66.285 115.723 C 64.52 115.504 63.141 114.934 62.137 114.035 L 61.254 118.051 C 61.137 118.648 61.156 119.07 61.309 119.285 C 61.469 119.5 61.805 119.703 62.387 119.875 L 62.293 120.27 L 62.18 120.242 C 61.512 120.051 60.895 119.898 60.332 119.762 L 60.246 119.742 L 55.961 118.734 L 55.852 118.707 L 55.945 118.313 C 56.578 118.406 57 118.391 57.23 118.297 C 57.461 118.203 57.641 117.832 57.82 117.219 C 58.316 115.281 58.938 112.723 59.703 109.57 C 60.547 106.082 61.023 103.992 61.133 103.301 C 61.145 103.125 61.172 103.012 61.191 102.93 C 61.176 102.867 61.168 102.773 61.133 102.676 C 61.07 102.57 61 102.496 60.855 102.461 C 60.613 102.371 60.148 102.32 59.508 102.254 L 59.512 101.75 C 62.391 101.551 64.297 101.418 65.191 101.305 L 65.262 101.383 C 65.125 101.945 64.961 102.621 64.734 103.43 C 66.195 102.324 67.996 102.016 70.117 102.5 C 71.84 102.887 73.066 103.84 73.75 105.316"/>
<path d="M 83.441 98.914 C 83.633 98.516 83.535 98.117 83.148 97.75 C 82.762 97.379 82.348 97.305 81.938 97.551 L 79.266 101.688 L 79.617 102 Z M 85.43 115.301 C 85.645 115.426 86.086 115.496 86.754 115.488 L 86.789 115.836 L 86.676 115.848 C 85.922 115.895 84.367 116.047 81.977 116.285 L 81.891 116.297 L 79.934 116.52 L 79.816 116.531 L 79.785 116.188 C 80.414 116.094 80.836 115.938 81.047 115.738 C 81.23 115.547 81.309 115.16 81.277 114.551 C 81.172 113.195 81.047 111.637 80.871 109.879 C 80.645 107.633 80.48 106.281 80.406 105.824 C 80.336 105.391 80.191 105.145 79.984 105.105 C 79.953 105.082 79.895 105.09 79.867 105.09 C 79.691 105.078 79.324 105.172 78.727 105.32 L 78.574 104.957 C 81.953 103.543 83.684 102.789 83.766 102.75 L 83.859 102.801 C 84.074 105.25 84.27 107.5 84.473 109.52 L 84.969 114.184 C 85.055 114.785 85.211 115.18 85.43 115.301"/>
<path d="M 97.887 98.492 C 98.547 98.348 99.043 98.336 99.359 98.426 L 99.684 101.918 L 99.441 102.016 C 98.75 101.078 97.816 100.707 96.637 100.875 C 96.359 100.891 96.082 100.973 95.762 101.105 C 95.438 101.234 95.082 101.441 94.734 101.738 C 94.363 102.047 94.098 102.402 93.922 102.82 L 95.57 106.871 L 97.195 110.805 C 97.449 111.355 97.793 111.656 98.23 111.664 C 98.648 111.684 99.336 111.527 100.258 111.188 L 100.434 111.617 L 100.324 111.66 L 97.496 112.777 L 97.414 112.809 L 93.215 114.543 L 93.105 114.59 L 92.93 114.16 C 93.484 113.902 93.816 113.645 93.938 113.406 C 94.063 113.168 93.988 112.762 93.789 112.188 C 93.367 111.074 92.863 109.75 92.242 108.219 C 91.293 105.887 90.77 104.598 90.656 104.395 C 90.566 104.242 90.52 104.137 90.488 104.055 C 90.441 104.012 90.379 103.945 90.293 103.883 C 90.18 103.836 90.078 103.816 89.945 103.871 C 89.773 103.91 89.434 104.078 88.957 104.363 L 88.613 103.973 C 90.758 102.258 92.18 101.059 92.832 100.355 L 92.934 100.375 L 93.641 102.121 C 93.859 101.5 94.199 100.957 94.695 100.41 C 95.195 99.863 95.641 99.496 96.063 99.23 C 96.594 98.922 97.211 98.672 97.887 98.492"/>
<path d="M 112.926 102.719 C 113.172 102.707 113.586 102.527 114.145 102.16 L 114.434 102.523 L 114.34 102.598 C 113.734 103.039 112.504 104.008 110.664 105.465 L 110.598 105.52 L 109.07 106.762 L 108.98 106.832 L 108.691 106.469 C 109.172 106.051 109.441 105.691 109.516 105.41 C 109.57 105.148 109.426 104.781 109.07 104.285 C 108.5 103.52 107.59 102.32 106.281 100.66 C 104.969 99.004 104.141 97.996 103.828 97.652 C 103.699 97.535 103.625 97.445 103.574 97.375 C 103.516 97.348 103.438 97.297 103.34 97.266 C 103.215 97.25 103.113 97.258 103 97.348 C 102.777 97.488 102.5 97.746 102.168 98.117 L 101.746 97.82 C 102.891 96.141 103.922 94.59 104.832 93.133 L 104.938 93.125 C 106.441 95.074 107.816 96.863 109.074 98.453 L 111.934 102.023 C 112.332 102.484 112.676 102.73 112.926 102.719 M 100.84 93.262 C 100.309 93.199 99.844 92.938 99.504 92.508 C 99.199 92.121 99.105 91.676 99.168 91.148 C 99.23 90.621 99.465 90.215 99.895 89.875 C 100.328 89.531 100.82 89.363 101.352 89.426 C 101.879 89.488 102.266 89.699 102.574 90.082 C 102.914 90.516 103.082 91.012 103.02 91.539 C 102.977 92.09 102.715 92.555 102.285 92.895 C 101.852 93.234 101.387 93.348 100.84 93.262"/>
<path d="M 122.598 90.219 C 123.328 89.488 123.805 88.621 124.047 87.633 C 124.313 86.66 124.313 85.828 124.098 85.16 L 124.516 85.055 C 125.84 87.195 125.723 89.449 124.145 91.809 C 123.02 93.496 121.516 94.547 119.598 94.969 C 117.699 95.406 115.941 95.066 114.32 93.949 C 112.582 92.75 111.555 91.266 111.324 89.473 C 111.094 87.684 111.504 85.973 112.559 84.344 C 113.355 83.098 114.184 82.121 115.125 81.391 C 116.047 80.684 116.844 80.277 117.445 80.156 L 120.199 83.387 L 120.004 83.676 C 119.434 83.438 118.832 83.242 118.262 83.105 C 117.691 82.969 117.074 82.902 116.398 82.871 C 115.73 82.879 115.113 83.02 114.543 83.301 C 113.957 83.605 113.508 84.07 113.168 84.68 C 112.605 85.73 112.645 86.871 113.316 88.055 C 113.988 89.234 114.969 90.168 116.254 90.852 C 118.789 92.164 120.902 91.977 122.598 90.219"/>
<path d="M 129.844 69.176 C 129.016 69.047 127.672 68.816 125.797 68.453 L 123.18 67.949 C 123.57 68.379 123.875 69.383 124.125 70.992 C 124.289 71.996 124.598 72.824 125.047 73.41 C 125.488 74.027 125.918 74.402 126.332 74.543 C 126.742 74.711 127.168 74.793 127.613 74.789 C 128.379 74.789 128.984 74.555 129.441 74.023 C 129.918 73.523 130.215 72.902 130.332 72.16 C 130.535 70.934 130.371 69.957 129.844 69.176 M 132.551 64.477 L 133.004 64.566 L 132.949 64.848 L 132.586 66.727 L 132.137 69.059 L 132.063 69.457 C 131.945 69.434 131.746 69.395 131.43 69.363 C 131.141 69.336 130.906 69.32 130.73 69.316 C 131.16 69.988 131.457 70.754 131.641 71.645 C 131.848 72.539 131.852 73.453 131.707 74.344 C 131.48 75.832 130.949 76.91 130.113 77.57 C 129.305 78.242 128.453 78.52 127.586 78.441 C 126.422 78.363 125.473 77.918 124.75 77.098 C 124.02 76.281 123.563 74.836 123.375 72.766 C 123.215 70.523 122.887 69.012 122.41 68.273 C 122.121 67.777 121.742 67.465 121.281 67.406 L 121.25 67.402 C 120.734 67.332 120.273 67.418 119.891 67.727 C 119.508 68.039 119.262 68.695 119.109 69.641 C 119.012 70.598 119.242 71.555 119.82 72.523 C 120.426 73.523 121.313 74.43 122.516 75.223 L 122.434 75.648 L 119.09 76.008 C 118.602 75.027 118.328 73.68 118.313 71.938 C 118.289 71.137 118.359 70.32 118.488 69.492 C 118.648 68.668 118.891 67.859 119.199 67.035 C 119.527 66.242 120.035 65.605 120.707 65.172 C 121.383 64.742 122.18 64.574 123.094 64.719 C 123.902 64.816 124.762 64.953 125.672 65.125 C 128.285 65.633 129.914 65.914 130.527 65.945 L 130.555 65.953 L 130.527 65.945 C 131.469 66.098 132.133 65.727 132.453 64.813 Z M 132.551 64.477"/>
<path d="M 75.09 26.375 L 75.215 27.285 L 71.633 27.773 L 70.82 21.82 L 71.824 21.684 L 72.512 26.727 Z M 75.09 26.375"/>
<path d="M 78.922 22.16 L 78.832 23.781 L 81.762 23.941 L 81.715 24.848 L 78.781 24.688 L 78.691 26.34 L 82.066 26.527 L 82.016 27.438 L 77.629 27.195 L 77.961 21.195 L 82.246 21.434 L 82.195 22.34 Z M 78.922 22.16"/>
<path d="M 90.238 26.363 L 89.645 28.496 C 88.934 28.777 87.98 28.84 87.188 28.621 C 85.477 28.145 84.504 26.492 84.965 24.84 C 85.426 23.184 87.125 22.297 88.875 22.785 C 89.703 23.016 90.441 23.559 90.875 24.215 L 90.121 24.781 C 89.789 24.242 89.238 23.82 88.633 23.652 C 87.453 23.324 86.273 23.969 85.957 25.113 C 85.633 26.273 86.316 27.434 87.496 27.762 C 87.93 27.883 88.457 27.871 88.938 27.738 L 89.387 26.125 Z M 90.238 26.363"/>
<path d="M 96.496 27.078 L 94.23 28.887 L 96.227 29.965 Z M 93.473 29.504 L 92.32 30.422 L 91.395 29.918 L 96.578 25.895 L 97.496 26.391 L 96.949 32.922 L 95.996 32.406 L 96.137 30.941 Z M 93.473 29.504"/>
<path d="M 102.066 35.934 L 101.477 36.637 L 98.707 34.316 L 102.563 29.715 L 103.34 30.363 L 100.074 34.262 Z M 102.066 35.934"/>
<path d="M 108.324 43.816 L 107.559 44.328 L 105.559 41.32 L 110.555 37.988 L 111.117 38.832 L 106.883 41.656 Z M 108.324 43.816"/>
<path d="M 114.188 46.809 L 111.285 46.77 L 112.141 48.867 Z M 110.309 46.758 L 108.84 46.738 L 108.438 45.762 L 115 45.949 L 115.395 46.91 L 110.824 51.609 L 110.418 50.609 L 111.453 49.563 Z M 110.309 46.758"/>
<path d="M 114.973 54.18 L 115.23 55.703 C 115.336 56.336 115.699 56.668 116.199 56.582 C 116.695 56.5 116.902 56.07 116.797 55.438 L 116.539 53.914 Z M 112.395 54.613 L 112.648 56.137 C 112.781 56.914 113.164 57.328 113.723 57.234 C 114.246 57.148 114.484 56.629 114.352 55.852 L 114.094 54.328 Z M 117.691 55.336 C 117.902 56.566 117.469 57.422 116.547 57.574 C 115.879 57.688 115.313 57.375 115.051 56.758 C 115.051 57.578 114.566 58.148 113.77 58.281 C 112.754 58.453 112.008 57.734 111.781 56.398 L 111.336 53.766 L 117.258 52.766 Z M 117.691 55.336"/>
<path d="M 81.051 69.531 C 83.617 72.754 86.09 75.855 88.559 78.953 C 88.48 79.035 88.504 79.008 88.43 79.086 C 85.328 76.617 82.23 74.148 79.008 71.582 C 79.004 71.578 78.992 71.582 78.992 71.59 C 78.219 78.32 77.457 84.938 76.695 91.551 L 76.508 91.551 C 75.746 84.953 74.988 78.355 74.211 71.59 C 74.207 71.582 74.199 71.574 74.191 71.582 C 70.91 74.152 67.715 76.656 64.52 79.16 C 64.449 79.09 64.473 79.113 64.406 79.043 C 66.961 75.91 69.512 72.773 72.148 69.531 C 72.156 69.527 72.148 69.516 72.141 69.516 C 65.34 68.738 58.684 67.98 52.023 67.219 L 52.023 67.031 C 58.676 66.273 65.332 65.516 72.133 64.738 C 72.141 64.738 72.145 64.727 72.137 64.723 C 69.543 61.477 67.02 58.32 64.496 55.164 C 64.582 55.082 64.555 55.109 64.637 55.023 C 67.781 57.539 70.926 60.059 74.195 62.672 C 74.203 62.68 74.211 62.672 74.211 62.664 C 74.988 55.883 75.75 49.219 76.508 42.555 L 76.691 42.555 C 77.453 49.211 78.211 55.863 78.988 62.664 C 78.988 62.672 78.996 62.68 79.004 62.672 L 88.512 54.934 C 88.582 55.004 88.559 54.98 88.633 55.051 C 86.137 58.238 83.637 61.43 81.059 64.719 C 81.055 64.727 81.059 64.734 81.066 64.738 C 87.797 65.512 94.41 66.273 101.023 67.035 L 101.023 67.219 C 94.422 67.977 87.816 68.738 81.059 69.516 C 81.051 69.516 81.047 69.527 81.051 69.531"/>
</g>
</svg>
